<?xml version="1.0" standalone="no"?>
<!DOCTYPE svg PUBLIC "-//W3C//DTD SVG 20010904//EN"
 "http://www.w3.org/TR/2001/REC-SVG-20010904/DTD/svg10.dtd">
<svg version="1.0" xmlns="http://www.w3.org/2000/svg"
 width="100.000000pt" height="98.000000pt" viewBox="0 0 100.000000 98.000000"
 preserveAspectRatio="xMidYMid meet">

<g transform="translate(0.000000,98.000000) scale(0.100000,-0.100000)"
fill="#000000" stroke="none">
<path d="M414 939 c-135 -17 -284 -130 -344 -261 -29 -63 -34 -85 -38 -173 -4
-89 -1 -107 22 -168 31 -83 71 -142 133 -197 199 -175 505 -150 662 54 23 29
41 56 41 59 0 19 -76 4 -128 -25 -51 -30 -65 -33 -137 -33 -65 0 -89 5 -125
24 -113 59 -169 137 -177 245 -6 68 12 124 64 199 30 44 124 94 194 103 62 8
145 -17 203 -61 46 -35 63 -40 103 -29 l21 6 -20 35 c-97 163 -276 247 -474
222z m-106 -481 c17 -68 29 -124 27 -126 -2 -2 -29 0 -60 3 -51 7 -58 11 -67
36 -9 26 -15 29 -53 29 -35 0 -45 -4 -50 -20 -4 -13 -15 -20 -32 -20 -13 0
-23 4 -21 9 2 4 23 51 47 104 47 103 47 103 132 106 l47 1 30 -122z"/>
<path d="M148 470 l-17 -40 30 0 c32 0 35 10 16 52 l-12 28 -17 -40z"/>
<path d="M889 643 l-46 -4 -7 -97 c-4 -53 -9 -134 -13 -178 l-6 -82 69 -4 c38
-3 70 -4 72 -3 2 2 7 63 12 136 5 74 12 158 15 187 6 59 16 54 -96 45z"/>
<path d="M552 613 c-48 -5 -37 14 -142 -219 l-28 -62 25 -5 c20 -4 27 1 41 29
15 33 17 34 79 34 l63 0 12 -44 11 -44 66 -5 c36 -3 68 -3 70 -1 2 2 -14 75
-36 162 l-39 157 -40 1 c-21 1 -59 -1 -82 -3z m11 -116 c9 -30 17 -57 17 -60
0 -4 -20 -7 -45 -7 -25 0 -45 3 -45 7 0 14 44 113 50 113 3 0 14 -24 23 -53z"/>
</g>
</svg>
