<?xml version="1.0" standalone="no"?>
<!DOCTYPE svg PUBLIC "-//W3C//DTD SVG 20010904//EN"
 "http://www.w3.org/TR/2001/REC-SVG-20010904/DTD/svg10.dtd">
<svg version="1.0" xmlns="http://www.w3.org/2000/svg"
 width="407.000000pt" height="436.000000pt" viewBox="0 0 407.000000 436.000000"
 preserveAspectRatio="xMidYMid meet">

<g transform="translate(0.000000,436.000000) scale(0.100000,-0.100000)"
fill="#000000" stroke="none">
<path d="M2660 4313 c-20 -10 -43 -33 -52 -53 -17 -33 -18 -153 -18 -2083 0
-1759 2 -2052 14 -2082 35 -82 141 -99 203 -31 l33 36 0 2067 c0 1621 -3 2073
-13 2092 -30 59 -108 84 -167 54z"/>
<path d="M3146 4300 c-16 -5 -40 -19 -54 -32 -50 -47 -52 -61 -52 -439 0 -339
1 -353 21 -389 12 -21 38 -47 59 -59 72 -40 88 -35 456 141 187 88 354 172
373 186 43 32 64 83 59 142 -8 82 -31 101 -258 212 -516 251 -537 259 -604
238z"/>
<path d="M1523 3720 c-230 -48 -336 -328 -194 -516 48 -64 105 -101 186 -121
148 -36 296 31 365 167 86 168 11 374 -162 450 -53 23 -139 32 -195 20z"/>
<path d="M542 3051 c-143 -49 -212 -210 -148 -346 52 -112 191 -174 303 -134
29 10 32 17 63 132 17 67 42 148 55 181 27 66 22 82 -32 122 -79 59 -157 73
-241 45z"/>
<path d="M3397 3059 c-80 -18 -141 -71 -178 -153 l-21 -49 25 -21 c57 -49 117
-168 117 -232 0 -27 42 -44 108 -44 67 0 118 19 168 63 52 46 70 77 85 146 13
62 -6 137 -49 197 -52 72 -164 113 -255 93z"/>
<path d="M1524 2976 c-3 -8 2 -28 11 -46 15 -29 15 -43 -6 -208 l-22 -177 39
-62 c21 -34 41 -62 44 -63 3 0 23 28 44 63 l39 62 -21 178 c-20 164 -21 180
-6 208 24 48 14 59 -56 59 -43 0 -62 -4 -66 -14z"/>
<path d="M1224 2954 c-158 -28 -190 -46 -227 -119 -8 -16 -42 -131 -77 -255
-34 -124 -71 -254 -83 -290 -19 -59 -21 -94 -25 -373 l-4 -307 25 -43 c37 -63
92 -90 171 -85 75 4 117 31 148 91 20 39 22 60 25 307 4 241 7 273 29 360 14
52 29 99 33 103 5 5 19 -17 31 -50 22 -57 22 -64 16 -381 -6 -299 -8 -327 -27
-372 -20 -47 -106 -140 -129 -140 -7 0 -10 -197 -10 -622 l0 -623 23 -40 c73
-128 258 -123 322 10 13 29 15 111 15 622 0 553 1 590 19 623 39 75 154 72
186 -4 13 -30 15 -129 15 -621 0 -640 -1 -627 58 -677 93 -78 227 -53 280 52
l22 44 0 861 c0 830 1 870 25 1155 14 162 25 303 25 313 0 9 5 17 12 17 6 0
69 -25 140 -55 70 -30 130 -55 133 -55 3 0 5 90 5 199 0 198 0 200 -22 207
-13 4 -86 34 -163 67 -114 49 -164 64 -265 82 -69 12 -125 22 -126 21 0 0 -16
-95 -34 -211 -36 -231 -28 -211 -148 -373 l-54 -74 -27 39 c-15 21 -51 72 -81
113 l-53 75 -35 210 c-19 116 -37 213 -41 216 -3 3 -60 -4 -127 -17z"/>
<path d="M3030 2570 c0 -116 3 -170 11 -170 20 0 67 40 90 76 25 41 30 124 9
164 -18 36 -51 70 -82 86 l-28 15 0 -171z"/>
<path d="M334 2471 c-96 -17 -133 -35 -160 -76 -16 -24 -70 -205 -124 -414
-29 -109 -30 -122 -30 -333 0 -207 1 -223 21 -255 26 -42 66 -63 121 -63 56 0
112 37 126 82 6 18 13 128 16 243 6 197 22 310 46 338 4 5 15 -12 25 -37 15
-39 17 -75 13 -288 -5 -278 -11 -302 -84 -367 l-44 -39 0 -476 c0 -526 -1
-517 63 -556 41 -26 112 -26 153 -1 64 39 64 40 64 550 l0 462 25 24 c32 33
78 33 110 0 l25 -24 0 -456 c0 -491 0 -495 53 -544 31 -28 104 -39 147 -21
l30 12 0 529 0 529 -27 6 c-53 12 -143 67 -184 111 -22 25 -53 70 -67 101
l-27 57 3 334 2 335 31 114 c17 63 33 121 36 128 8 21 -244 17 -363 -5z"/>
<path d="M3331 2468 c-29 -75 -45 -103 -86 -147 -54 -57 -111 -94 -172 -110
l-43 -12 0 -435 0 -435 31 18 c61 36 66 56 73 298 6 180 11 233 28 290 l21 70
19 -40 c17 -37 18 -62 15 -290 -3 -285 -9 -308 -86 -378 l-42 -38 1 -475 c0
-524 -1 -516 63 -554 42 -26 112 -26 155 0 62 38 62 41 62 550 l0 461 25 24
c32 33 78 33 110 0 l25 -24 0 -456 c0 -499 0 -498 59 -548 46 -39 126 -39 172
0 59 50 59 47 59 562 0 459 0 470 -20 476 -29 9 -85 79 -98 122 -6 21 -14 144
-17 273 -5 190 -4 243 7 274 8 22 19 41 25 43 5 2 19 -32 31 -75 19 -69 22
-106 22 -271 0 -212 5 -239 59 -284 59 -50 162 -30 208 39 16 25 17 51 15 263
l-3 236 -66 235 c-36 129 -72 247 -80 262 -31 62 -184 98 -420 98 -140 0 -144
-1 -152 -22z"/>
</g>
</svg>
