<?xml version="1.0" standalone="no"?>
<!DOCTYPE svg PUBLIC "-//W3C//DTD SVG 20010904//EN"
 "http://www.w3.org/TR/2001/REC-SVG-20010904/DTD/svg10.dtd">
<svg version="1.0" xmlns="http://www.w3.org/2000/svg"
 width="91.000000pt" height="90.000000pt" viewBox="0 0 91.000000 90.000000"
 preserveAspectRatio="xMidYMid meet">

<g transform="translate(0.000000,90.000000) scale(0.100000,-0.100000)"
fill="#000000" stroke="none">
<path d="M20 455 l0 -435 193 2 c163 3 192 5 192 18 0 12 -26 16 -152 20 -138
5 -155 7 -173 26 -21 20 -21 29 -21 355 0 184 1 342 1 352 0 9 9 26 20 37 18
18 33 20 169 20 118 0 150 3 154 14 3 8 3 17 0 20 -4 3 -91 6 -195 6 l-188 0
0 -435z"/>
<path d="M442 458 c2 -282 6 -432 13 -430 16 4 14 854 -3 860 -10 3 -12 -85
-10 -430z"/>
<path d="M502 873 c3 -16 20 -18 153 -21 137 -2 151 -4 172 -24 l23 -21 0
-352 c0 -345 0 -352 -21 -371 -18 -16 -42 -20 -173 -24 -125 -4 -151 -8 -151
-20 0 -13 28 -15 190 -15 l190 0 3 433 2 432 -196 0 c-181 0 -195 -1 -192 -17z"/>
<path d="M106 804 c-14 -13 -16 -59 -16 -347 0 -191 4 -338 10 -347 12 -20
273 -28 296 -10 12 10 14 68 14 350 0 186 -3 345 -6 354 -9 24 -275 24 -298 0z
m284 -54 l0 -30 -140 0 c-147 0 -162 5 -146 45 4 12 30 15 146 15 l140 0 0
-30z m0 -80 l0 -30 -140 0 c-147 0 -162 5 -146 45 4 12 30 15 146 15 l140 0 0
-30z m0 -80 l0 -30 -140 0 c-147 0 -162 5 -146 45 4 12 30 15 146 15 l140 0 0
-30z m0 -80 l0 -30 -140 0 c-147 0 -162 5 -146 45 4 12 30 15 146 15 l140 0 0
-30z m0 -80 l0 -30 -110 0 -110 0 0 -95 0 -95 81 0 80 0 -3 48 c-3 47 -3 47
-40 50 -22 2 -38 -1 -38 -7 0 -6 9 -11 20 -11 12 0 24 -9 29 -22 14 -38 3 -48
-55 -48 -62 0 -68 9 -62 96 l3 49 103 3 103 3 -3 -113 -3 -113 -129 -3 c-86
-2 -133 1 -142 9 -11 9 -14 44 -14 154 0 78 3 145 7 148 3 4 69 7 145 7 l138
0 0 -30z"/>
<path d="M505 808 c-3 -7 -4 -171 -3 -363 l3 -350 134 -3 c188 -4 181 -11 181
170 0 175 -18 177 -22 3 l-3 -120 -129 -3 c-88 -2 -133 1 -142 9 -11 9 -14 35
-12 113 l3 101 103 3 103 3 -3 -73 -3 -73 -55 0 c-54 0 -55 0 -55 30 0 23 5
31 23 33 35 5 26 22 -13 22 l-35 0 0 -50 0 -51 78 3 77 3 0 90 0 90 -110 5
c-109 5 -110 5 -110 30 0 25 1 25 110 30 l110 5 0 45 0 45 -110 5 c-109 5
-110 5 -110 30 0 23 4 25 55 30 l55 5 0 45 0 45 -55 5 c-51 5 -55 7 -55 30 0
23 4 25 55 30 40 4 55 9 55 20 0 20 -113 28 -120 8z"/>
<path d="M692 803 c2 -14 16 -19 58 -23 51 -5 55 -7 55 -30 0 -23 -4 -25 -57
-28 l-58 -3 0 -49 0 -49 53 -3 52 -3 3 -70 c2 -38 7 -74 13 -80 5 -5 9 52 9
157 0 194 -2 198 -81 198 -43 0 -50 -3 -47 -17z"/>
</g>
</svg>
